<?xml version="1.0" encoding="utf-8"?>
<!-- Generator: Adobe Illustrator 23.1.1, SVG Export Plug-In . SVG Version: 6.00 Build 0)  -->
<svg version="1.1" id="Layer_1" xmlns="http://www.w3.org/2000/svg" xmlns:xlink="http://www.w3.org/1999/xlink" x="0px" y="0px"
	 viewBox="0 0 494 223" style="enable-background:new 0 0 494 223;" xml:space="preserve">
<style type="text/css">
	.st0{fill:#D53524;}
	.st1{fill:#FFFFFF;}
</style>
<title>top_40_blog_red</title>
<path class="st0" d="M113.2,49.5c28.4,0,56.3,7.9,80.4,23c2.1,1.3,2.7,4,1.4,6.1c-1.3,2.1-4,2.7-6.1,1.4
	c-46.4-28.9-105.2-28.9-151.6,0c-2.1,1.3-4.8,0.7-6.1-1.4c-1.3-2.1-0.7-4.8,1.4-6.1C56.9,57.4,84.8,49.4,113.2,49.5z"/>
<path class="st0" d="M143.3,130.3c3.4,0,6.8,0.8,9.9,2.3l-3.9,7.9c-1.9-0.9-3.9-1.4-6-1.4c-7.6,0-13.8,6.2-13.8,13.8
	c0,4.3,2,8.3,5.3,10.9l-5.4,6.9c-9.8-7.7-11.6-21.9-3.9-31.8C129.8,133.5,136.3,130.3,143.3,130.3L143.3,130.3z"/>
<path class="st0" d="M82.1,106.6c12.5,0,22.6,10.1,22.6,22.6c0,12.5-10.1,22.6-22.6,22.6c0,0,0,0,0,0c-0.4,0-0.8,0-1.2,0l0.4-8.8
	c7.6,0.4,14.2-5.4,14.6-13c0.4-7.6-5.4-14.2-13-14.6c-5.8-0.3-11.2,3-13.5,8.4l-8.1-3.4C64.8,112,73,106.6,82.1,106.6z"/>
<path class="st0" d="M127,113.6c12.5,0,22.6-10.2,22.6-22.7s-10.2-22.6-22.7-22.6c-12.5,0-22.6,10.1-22.6,22.6
	C104.3,103.5,114.5,113.6,127,113.6C127,113.6,127,113.6,127,113.6z M127,77.2c7.6,0,13.8,6.2,13.8,13.9c0,7.6-6.2,13.8-13.9,13.8
	c-7.6,0-13.8-6.2-13.8-13.8C113.1,83.4,119.4,77.2,127,77.2z"/>
<path class="st0" d="M31.4,78.5L113.2,210l81.8-131.5L217,43.3l-3.7-2.3C152,2.9,74.4,2.9,13.2,41l-3.7,2.3L31.4,78.5z M113.2,21.2
	c32.2,0,63.9,8.6,91.6,25l-14.9,24l-4.7,7.5l-33.7,54.2l-4.8,7.7l-13.9,22.3l-4.8,7.6l-14.8,23.7l-26.2-42L82,143l0,0l-12.4-19.7
	l-5.1-8.3L41.2,77.7l-4.7-7.5l-14.9-24C49.4,29.8,81,21.2,113.2,21.2z"/>
<path class="st1" d="M242,59.8l-2.4-6.1H232l-2.4,6.1h-2.2l7.6-19.2h1.9l7.5,19.2H242z M239,51.7l-2.2-5.9c-0.3-0.7-0.6-1.7-0.9-2.8
	c-0.2,0.9-0.5,1.9-0.9,2.8l-2.2,5.9H239z"/>
<path class="st1" d="M263.6,59.8h-2.2L257.6,47c-0.2-0.6-0.4-1.3-0.6-2.1c-0.2-0.5-0.3-1-0.4-1.6c-0.2,1.3-0.5,2.5-0.9,3.8L252,59.8
	h-2.2l-5.1-19.1h2.3l3,11.8c0.4,1.5,0.7,3,1,4.5c0.2-1.6,0.6-3.1,1-4.7l3.4-11.6h2.3l3.6,11.7c0.5,1.5,0.8,3,1.1,4.6
	c0.2-1.5,0.5-3,0.9-4.5l3-11.8h2.4L263.6,59.8z"/>
<path class="st1" d="M283.7,59.8l-2.4-6.1h-7.6l-2.4,6.1h-2.2l7.5-19.2h1.9l7.5,19.2H283.7z M280.7,51.7l-2.2-5.9
	c-0.3-0.7-0.6-1.7-0.9-2.8c-0.2,0.9-0.5,1.9-0.8,2.8l-2.2,5.9H280.7z"/>
<path class="st1" d="M290.9,51.8v8h-2.2V40.7h5.2c1.8-0.2,3.7,0.3,5.2,1.3c1.2,1,1.8,2.5,1.7,4c0,2.5-1.3,4.2-3.8,5.1l5.2,8.6h-2.6
	l-4.6-8L290.9,51.8z M290.9,49.9h3c1.2,0.1,2.4-0.2,3.5-0.9c0.8-0.7,1.2-1.7,1.1-2.8c0.1-1-0.3-2.1-1.1-2.7
	c-1.1-0.6-2.3-0.9-3.6-0.8h-2.9L290.9,49.9z"/>
<path class="st1" d="M320.5,50.1c0,3.2-0.9,5.6-2.6,7.2c-1.7,1.7-4.2,2.5-7.4,2.5h-5.3V40.7h5.9c2.6-0.2,5.1,0.7,6.9,2.5
	C319.7,45,320.6,47.5,320.5,50.1z M318.1,50.1c0.2-2.1-0.5-4.1-1.9-5.6c-1.5-1.4-3.5-2-5.6-1.9h-3.2v15.2h2.7c2.7,0,4.7-0.7,6-2
	C317.6,54.3,318.3,52.2,318.1,50.1L318.1,50.1z"/>
<path class="st1" d="M335.4,59.8h-10.7V40.7h10.6v2h-8.4v6.2h7.9v2h-7.9v7h8.4L335.4,59.8z"/>
<path class="st1" d="M354.9,50.1c0,3.2-0.9,5.6-2.6,7.2c-1.7,1.7-4.2,2.5-7.4,2.5h-5.3V40.7h5.9c2.6-0.2,5.1,0.7,6.9,2.5
	C354.1,45,355,47.5,354.9,50.1z M352.5,50.1c0.2-2.1-0.5-4.1-1.9-5.6c-1.5-1.4-3.6-2.1-5.6-1.9h-3.2v15.3h2.7c2.7,0,4.7-0.7,6-2
	C351.9,54.3,352.6,52.2,352.5,50.1z"/>
<path class="st1" d="M214.6,90h-2.5c-0.1-1.6-0.3-3.2-0.9-4.8c-0.4-1.2-1-2.2-1.9-3.1c-0.8-0.8-1.9-1.3-3-1.6
	c-1.3-0.3-2.7-0.5-4.1-0.4c-1.5,0-2.7,0-3.7,0.1c-0.7,0-1.4,0.1-2.1,0.3c-0.4,0.1-0.7,0.3-1,0.6c-0.2,0.3-0.3,0.6-0.2,0.9v30.8
	c0,1.1,0.1,2.2,0.3,3.2c0.1,0.8,0.5,1.6,1.1,2.2c0.7,0.6,1.5,1.1,2.4,1.3c1.4,0.3,2.8,0.5,4.2,0.5v2.3h-24.6v-2.3
	c1.4,0,2.8-0.2,4.2-0.5c0.9-0.2,1.8-0.7,2.4-1.3c0.6-0.6,1-1.4,1.1-2.2c0.2-1.1,0.3-2.1,0.3-3.2V81.9c0-0.3-0.1-0.6-0.2-0.9
	c-0.2-0.3-0.5-0.5-0.9-0.6c-0.6-0.2-1.2-0.3-1.9-0.3c-0.8-0.1-1.8-0.1-3.1-0.1c-1.4,0-2.7,0.1-4.1,0.2c-1.2,0.1-2.4,0.5-3.4,1.2
	c-1.1,0.7-1.9,1.8-2.4,2.9c-0.7,1.8-1,3.7-1,5.6h-2.3l0.6-12.9h46L214.6,90z"/>
<path class="st1" d="M229.9,90.6c2.3,0,4.5,0.4,6.7,1.2c2,0.8,3.9,1.9,5.5,3.3c1.6,1.4,2.9,3.1,3.8,5c0.9,2,1.4,4.2,1.4,6.4
	c0,2.3-0.4,4.5-1.4,6.6c-0.9,2-2.2,3.7-3.8,5.2c-1.6,1.5-3.5,2.6-5.5,3.4c-4.3,1.6-9,1.6-13.2,0c-2-0.8-3.9-1.9-5.5-3.4
	c-1.6-1.5-2.8-3.2-3.7-5.2c-0.9-2.1-1.4-4.3-1.4-6.6c0-2.2,0.4-4.4,1.4-6.4c0.9-1.9,2.1-3.6,3.7-5c1.6-1.4,3.4-2.5,5.5-3.3
	C225.4,90.9,227.6,90.6,229.9,90.6z M229.9,94c-1.1,0-2.3,0.3-3.2,0.9c-1,0.6-1.9,1.5-2.5,2.6c-0.7,1.2-1.3,2.6-1.6,4
	c-0.4,1.7-0.6,3.4-0.6,5.1c0,1.8,0.2,3.5,0.6,5.3c0.3,1.4,0.8,2.8,1.6,4c0.6,1,1.5,1.9,2.5,2.6c1,0.6,2.1,0.9,3.3,0.9
	c1.2,0,2.3-0.3,3.3-0.9c1-0.6,1.9-1.5,2.6-2.6c0.8-1.2,1.3-2.6,1.6-4c0.4-1.7,0.6-3.5,0.6-5.2c0-1.7-0.2-3.4-0.6-5.1
	c-0.3-1.4-0.9-2.8-1.6-4c-0.6-1-1.5-1.9-2.6-2.6C232.2,94.3,231,94,229.9,94L229.9,94z"/>
<path class="st1" d="M262.1,95h0.2c2.5-2.9,6.2-4.5,10.1-4.4c2.1,0,4.3,0.4,6.2,1.2c3.8,1.6,6.7,4.6,8.2,8.5
	c0.8,2.1,1.2,4.3,1.1,6.5c0,2.2-0.4,4.4-1.1,6.5c-0.7,1.9-1.8,3.6-3.2,5.1c-1.4,1.5-3,2.6-4.9,3.4c-2,0.8-4.1,1.2-6.2,1.2
	c-3.8,0-6.7-1.3-8.7-3.9h-0.2v8.2c0,1.3,0.1,2.5,0.2,3.8c0.1,0.8,0.4,1.6,1,2.2c0.6,0.6,1.3,0.9,2.1,1.1c1.2,0.2,2.4,0.3,3.7,0.4
	v2.5h-20.3v-2.5c0.9,0,1.7-0.1,2.6-0.4c0.6-0.2,1.2-0.5,1.6-1.1c0.4-0.6,0.7-1.3,0.8-2.1c0.2-1.1,0.2-2.3,0.2-3.4v-21.9
	c0-1.8,0-3.5-0.1-5.1c0-1.2-0.1-2.3-0.3-3.4c-0.1-0.8-0.6-1.5-1.3-1.9c-1.1-0.4-2.3-0.6-3.5-0.5v-2.3l11.8-1.6L262.1,95z
	 M272.1,93.9c-1.2,0-2.5,0.3-3.6,0.8c-1.1,0.5-2,1.2-2.7,2.2c-0.7,1-1.2,2.2-1.5,3.4c-0.4,1.4-0.5,2.9-0.5,4.4v4
	c-0.1,2.5,0.6,5,2,7.1c1.4,2.1,3.8,3.3,6.3,3.2c2.2,0.1,4.3-1.1,5.3-3c1.2-2,1.7-5.1,1.7-9.2C279.2,98.2,276.8,93.9,272.1,93.9
	L272.1,93.9z"/>
<path class="st1" d="M306.4,106.5l21.4-30.1h5.6v29.9c1.2,0,2.3-0.1,3.5-0.3c0.8-0.1,1.5-0.4,2.1-0.9c0.5-0.4,0.9-1,1.1-1.7
	c0.2-0.9,0.3-1.8,0.3-2.8h2.2V115h-2.2c0-0.9-0.1-1.7-0.3-2.6c-0.2-0.6-0.5-1.2-1.1-1.6c-0.6-0.4-1.4-0.7-2.1-0.8
	c-1.1-0.2-2.3-0.2-3.5-0.3v1.8c0,1.2,0.1,2.4,0.2,3.6c0.1,0.9,0.4,1.8,0.8,2.6c0.4,0.7,1,1.2,1.7,1.6c0.9,0.4,1.8,0.6,2.8,0.6v2.3
	h-20.1v-2.3c1.1,0,2.3-0.2,3.3-0.6c0.8-0.3,1.5-0.9,1.9-1.6c0.5-0.7,0.8-1.6,0.9-2.4c0.2-1.1,0.2-2.2,0.2-3.3v-2h-18.7V106.5z
	 M325.1,87.3h-0.2l-13.5,19h13.7V87.3z"/>
<path class="st1" d="M366.9,76.5c2.6,0,5.2,0.6,7.6,1.8c2.4,1.2,4.5,2.9,6.2,5c1.8,2.2,3.2,4.7,4.2,7.5c1.1,3,1.6,6.1,1.6,9.3
	c0,3-0.5,6.1-1.6,8.9c-1,2.6-2.4,5.1-4.2,7.2c-1.7,2-3.8,3.7-6.2,4.9c-2.4,1.2-5,1.8-7.6,1.8c-2.6,0-5.2-0.6-7.5-1.8
	c-2.3-1.2-4.4-2.9-6.1-4.9c-1.8-2.2-3.2-4.6-4.1-7.2c-1-2.9-1.6-5.9-1.5-8.9c0-3.2,0.5-6.3,1.5-9.3c0.9-2.7,2.3-5.2,4.1-7.5
	c1.7-2.1,3.8-3.8,6.1-5C361.7,77.1,364.3,76.5,366.9,76.5z M366.9,119.5c1.3,0,2.6-0.3,3.8-0.9c1.2-0.7,2.2-1.8,2.9-3.1
	c0.9-1.9,1.5-3.9,1.8-5.9c0.5-3.1,0.7-6.2,0.6-9.3c0-3.3-0.2-6.5-0.6-9.7c-0.3-2.2-0.9-4.3-1.8-6.2c-0.6-1.4-1.6-2.5-2.9-3.3
	c-2.3-1.3-5.2-1.3-7.6,0c-1.3,0.8-2.2,2-2.9,3.3c-0.9,2-1.5,4.1-1.8,6.2c-0.5,3.2-0.7,6.5-0.6,9.7c0,3.1,0.2,6.2,0.6,9.3
	c0.3,2.1,0.9,4.1,1.8,5.9c0.6,1.3,1.6,2.4,2.9,3.1C364.3,119.2,365.6,119.5,366.9,119.5L366.9,119.5z"/>
<path class="st1" d="M207.8,160.1c0.2,3.9-1.7,7.5-4.9,9.7c-3.3,2.2-8.1,3.3-14.3,3.3h-5v10.3c0,1.2,0.1,2.4,0.3,3.6
	c0.1,0.8,0.6,1.6,1.2,2.1c0.8,0.6,1.6,0.9,2.6,1c1.5,0.2,2.9,0.3,4.4,0.2v2.4h-23.3v-2.4c1.1,0,2.2-0.1,3.2-0.4
	c0.7-0.1,1.4-0.5,1.9-1c0.5-0.6,0.8-1.3,0.9-2c0.2-1.1,0.3-2.2,0.2-3.4v-27.1c0-1.1-0.1-2.2-0.2-3.3c-0.1-0.7-0.4-1.4-0.8-2
	c-0.4-0.5-1-0.9-1.7-1c-0.9-0.2-1.9-0.3-2.9-0.4v-2.4h20.3c5.9,0,10.4,1.1,13.5,3.2C206.3,152.8,207.9,155.9,207.8,160.1z
	 M183.6,169.5h3.8c3.8,0,6.6-0.8,8.3-2.3s2.6-3.9,2.6-7.2c0.2-2.5-0.6-4.9-2.2-6.8c-1.5-1.6-3.8-2.4-7-2.4h-4.5
	c-0.7,0-1.1,0.3-1.1,1L183.6,169.5z"/>
<path class="st1" d="M223.9,183.1c0,1.3,0,2.5,0.2,3.8c0.1,0.8,0.3,1.5,0.7,2.2c0.4,0.5,0.9,0.9,1.5,1c0.9,0.2,1.8,0.3,2.7,0.3v2.4
	h-18.5v-2.4c0.9,0,1.8-0.1,2.7-0.4c0.6-0.2,1.2-0.5,1.6-1.1c0.4-0.6,0.7-1.3,0.8-2.1c0.2-1.1,0.2-2.2,0.2-3.4v-7.2
	c0-2.3,0-4.1-0.1-5.6c0-1-0.1-2-0.3-3c-0.1-0.8-0.6-1.6-1.3-1.9c-1.2-0.4-2.5-0.5-3.7-0.5v-2l13.6-2.2V183.1z M215.3,148.6
	c0-1.2,0.4-2.4,1.3-3.3c0.8-0.9,2-1.3,3.2-1.3c2.5,0,4.5,1.9,4.6,4.4c0,0,0,0.1,0,0.1c0,1.2-0.5,2.4-1.3,3.2c-0.9,0.9-2,1.3-3.3,1.3
	C217.3,153.1,215.3,151.1,215.3,148.6C215.3,148.6,215.3,148.6,215.3,148.6z"/>
<path class="st1" d="M260.6,192.7h-29v-1.4l18.4-26.7h-5.4c-1.4,0-2.7,0.1-4.1,0.2c-0.9,0.1-1.8,0.4-2.6,0.9
	c-0.7,0.5-1.2,1.1-1.5,1.9c-0.4,1-0.7,2-0.9,3.1h-2.3l0.7-9.2h26.5v1.4l-18.1,26.6h5.2c1.7,0,3.4-0.1,5.1-0.3c1.1-0.1,2.2-0.5,3.2-1
	c0.8-0.5,1.5-1.2,1.9-2.1c0.6-1.1,1-2.3,1.2-3.5h2.3L260.6,192.7z"/>
<path class="st1" d="M293.9,192.7h-29v-1.4l18.4-26.7h-5.4c-1.4,0-2.7,0.1-4.1,0.2c-0.9,0.1-1.8,0.4-2.5,0.9
	c-0.7,0.5-1.2,1.1-1.5,1.9c-0.4,1-0.7,2-0.9,3.1h-2.3l0.7-9.2h26.5v1.4l-18.1,26.6h5.2c1.7,0,3.3-0.1,5-0.3c1.1-0.1,2.2-0.5,3.2-1
	c0.8-0.5,1.5-1.2,1.9-2.1c0.6-1.1,1-2.3,1.2-3.5h2.3L293.9,192.7z"/>
<path class="st1" d="M316.9,172.9v-2.5c0.2-1.8-0.3-3.5-1.2-5c-0.9-1.1-2.3-1.6-3.7-1.5c-0.9-0.1-1.9,0.3-2.6,0.9
	c-0.7,0.9-1.3,1.9-1.6,3c-0.3,0.9-0.8,1.7-1.5,2.3c-0.8,0.6-1.7,0.9-2.7,0.8c-0.9,0.1-1.9-0.3-2.5-1c-0.6-0.8-0.9-1.8-0.9-2.8
	c0-1.9,1-3.4,3.1-4.5s5.2-1.6,9.3-1.6c4.4,0,7.5,0.8,9.4,2.4s2.8,4.3,2.8,8v12.9c0,3.3,0.7,5,2,5c0.8,0,1.5-0.3,2-0.8l0.9,1.7
	c-0.6,1-1.5,1.8-2.5,2.3c-1.2,0.6-2.6,0.9-3.9,0.9c-1.5,0.1-3.1-0.5-4.1-1.6c-1-1.3-1.5-3-1.4-4.6h-0.3c-2,3.9-6.1,6.3-10.6,6.2
	c-2.2,0.1-4.3-0.6-5.9-2.1c-1.5-1.4-2.3-3.4-2.2-5.4c0-1.9,0.9-3.6,2.2-4.9c2.2-1.9,4.8-3.4,7.6-4.4L316.9,172.9z M316.9,176
	c-2.6,1.1-5.1,2.5-7.4,4.1c-1.7,1.3-2.5,2.6-2.5,4c-0.1,1,0.3,2,0.9,2.7c0.6,0.7,1.5,1,2.4,1c0.9,0,1.8-0.2,2.6-0.5
	c0.8-0.3,1.5-0.8,2.1-1.3c0.6-0.6,1.1-1.2,1.4-2c0.3-0.8,0.5-1.6,0.5-2.4L316.9,176z"/>
<path class="st1" d="M348,192.7v-2.4c1.1,0,2.1-0.1,3.2-0.4c1.5-0.3,2.6-1.5,2.8-3c0.2-1.1,0.3-2.2,0.2-3.4v-27.1
	c0-1.1,0-2.2-0.2-3.3c-0.1-0.7-0.3-1.4-0.7-2c-0.4-0.5-0.9-0.8-1.5-1c-0.8-0.2-1.7-0.3-2.5-0.4v-2.4h18.9c5.9,0,10.5,0.9,13.6,2.9
	c3,1.6,4.9,4.7,4.8,8.1c0,4.7-3.3,8-10,9.9v0.2c2,0,4,0.3,5.8,0.9c1.6,0.5,3.1,1.4,4.4,2.6c1.2,1.1,2.2,2.4,2.8,3.9
	c0.7,1.5,1,3.2,1,4.9c0,1.8-0.5,3.7-1.4,5.2c-1.1,1.6-2.5,2.9-4.2,3.8c-3.5,2-8.3,2.9-14.4,2.9L348,192.7z M366.3,167.2
	c1.5,0,3.1-0.1,4.6-0.5c1.2-0.3,2.3-0.8,3.3-1.4c1.9-1.3,2.8-3.3,2.8-6c0-2.9-0.7-4.9-2.1-6.2s-3.7-1.9-6.8-1.9h-4.2
	c-0.7,0-1.1,0.3-1.1,1v15.1L366.3,167.2z M371,189.2c6.3,0,9.5-2.8,9.5-8.5c0-3.5-1.1-6-3.4-7.6c-1.4-0.9-2.9-1.5-4.5-1.8
	c-2.3-0.4-4.5-0.6-6.8-0.5h-2.8v11.7c0,2.4,0.6,4.2,1.9,5.2C366,188.7,368.1,189.2,371,189.2L371,189.2z"/>
<path class="st1" d="M407.1,183.1c0,1.3,0,2.5,0.2,3.8c0.1,0.8,0.3,1.5,0.7,2.2c0.4,0.5,0.9,0.9,1.5,1c0.9,0.2,1.8,0.3,2.7,0.3v2.4
	h-18.5v-2.4c0.9,0,1.8-0.1,2.7-0.4c0.6-0.2,1.2-0.5,1.6-1.1c0.4-0.6,0.7-1.3,0.8-2.1c0.2-1.1,0.2-2.2,0.2-3.4v-24.2
	c0-2.3,0-4.1-0.1-5.6c0-1-0.1-2-0.3-3c-0.1-0.8-0.6-1.6-1.3-1.9c-1.2-0.4-2.5-0.5-3.7-0.5v-2l13.6-2.2V183.1z"/>
<path class="st1" d="M432.7,161c2.3,0,4.5,0.4,6.7,1.2c2,0.8,3.9,1.9,5.5,3.3c1.6,1.4,2.9,3.1,3.8,5c0.9,2,1.4,4.2,1.4,6.4
	c0,2.3-0.4,4.5-1.4,6.6c-0.9,2-2.2,3.7-3.8,5.2c-1.6,1.5-3.5,2.6-5.5,3.4c-4.3,1.6-9,1.6-13.2,0c-2-0.8-3.9-1.9-5.5-3.4
	c-1.6-1.5-2.8-3.2-3.7-5.2c-0.9-2.1-1.4-4.3-1.4-6.6c0-2.2,0.4-4.4,1.4-6.4c0.9-1.9,2.1-3.6,3.7-5.1c1.6-1.4,3.4-2.5,5.5-3.3
	C428.2,161.4,430.4,161,432.7,161z M432.7,164.4c-1.1,0-2.3,0.3-3.2,0.9c-1,0.6-1.9,1.5-2.5,2.6c-0.7,1.2-1.3,2.6-1.6,4
	c-0.4,1.7-0.6,3.4-0.6,5.1c0,1.8,0.2,3.5,0.6,5.3c0.3,1.4,0.8,2.8,1.6,4c0.6,1,1.5,1.9,2.5,2.6c1,0.6,2.1,0.9,3.3,0.9
	c1.2,0,2.3-0.3,3.3-0.9c1-0.6,1.9-1.5,2.5-2.6c0.8-1.2,1.3-2.6,1.6-4c0.4-1.7,0.6-3.5,0.6-5.2c0-1.7-0.2-3.4-0.6-5.1
	c-0.3-1.4-0.9-2.8-1.6-4c-0.6-1-1.5-1.9-2.5-2.6C435,164.7,433.8,164.4,432.7,164.4L432.7,164.4z"/>
<path class="st1" d="M465.5,186.4c1.1,0.1,2,0.2,2.8,0.2c0.8,0.1,1.6,0.2,2.3,0.3l2.2,0.3l2.3,0.3c2.7,0.3,5.3,1.5,7.2,3.4
	c1.7,1.9,2.7,4.3,2.6,6.9c0.1,3.1-1.5,6-4.1,7.6c-2.7,1.7-6.8,2.6-12.1,2.6c-4.9,0-8.7-0.7-11.3-2.1c-2.6-1.4-4-3.5-4-6.1
	c-0.1-1.7,0.4-3.4,1.6-4.6c1.1-1,2.5-1.6,4-1.6c1,0,2.1,0.2,3,0.6c0.9,0.4,1.8,1,2.4,1.8c-1,0.2-1.8,0.7-2.5,1.4
	c-0.6,0.7-1,1.6-1,2.6c0,1.5,0.8,2.9,2.1,3.6c1.9,1,4,1.4,6.1,1.3c5.9,0,8.8-1.9,8.8-5.6c0-1.3-0.5-2.5-1.3-3.4
	c-1-1-2.4-1.6-3.8-1.7l-10.3-1.4c-4.3-0.6-6.5-2.5-6.5-5.8c-0.1-1.5,0.5-2.9,1.6-3.9c1.2-1.1,2.8-1.9,4.4-2.1v-0.2
	c-0.9-0.3-1.7-0.8-2.4-1.5c-0.7-0.6-1.4-1.4-1.9-2.2c-1.1-1.7-1.7-3.6-1.7-5.6c0-1.4,0.3-2.8,0.9-4.1c0.6-1.3,1.5-2.4,2.5-3.3
	c1.1-0.9,2.4-1.7,3.8-2.1c1.5-0.5,3.2-0.8,4.8-0.8c1.7,0,3.3,0.3,4.9,0.8c1.5,0.4,2.9,1.2,4.1,2.1c0.9-0.5,1.7-1,2.4-1.4
	c0.6-0.3,1.2-0.6,1.9-0.9c0.5-0.2,1-0.4,1.6-0.5c0.5-0.1,0.9-0.1,1.4-0.1c1.3-0.1,2.5,0.3,3.6,1c0.9,0.6,1.4,1.6,1.4,2.6
	c0,0.7-0.3,1.5-0.8,2c-0.5,0.5-1.3,0.8-2,0.8c-0.5,0-1-0.1-1.4-0.4c-0.4-0.3-0.7-0.6-1-0.9c-0.3-0.3-0.6-0.6-1-0.9
	c-0.4-0.3-0.9-0.4-1.4-0.4c-1,0.1-1.9,0.7-2.4,1.6c0.4,0.7,0.7,1.4,0.8,2.1c0.2,0.9,0.2,1.8,0.2,2.7c0,1.4-0.2,2.8-0.7,4.1
	c-0.5,1.3-1.2,2.4-2.2,3.3c-1.1,1-2.4,1.9-3.9,2.4c-1.8,0.7-3.7,1.2-5.7,1.4c-1.3,0.1-2.6,0.3-3.9,0.8c-0.6,0.2-1.1,0.8-1.1,1.4
	C462.9,185.7,463.8,186.2,465.5,186.4z M468.4,179.2c1.3,0,2.4-0.8,2.9-2c1.4-3.6,1.4-7.6,0-11.2c-0.5-1.2-1.7-2-3-2
	c-1.4,0-2.6,0.8-3.2,2c-0.9,1.7-1.3,3.6-1.2,5.5c-0.1,1.9,0.3,3.9,1.2,5.6C465.7,178.4,467,179.2,468.4,179.2L468.4,179.2z"/>
</svg>
